<?xml version="1.0" standalone="no"?>
<!DOCTYPE svg PUBLIC "-//W3C//DTD SVG 20010904//EN"
 "http://www.w3.org/TR/2001/REC-SVG-20010904/DTD/svg10.dtd">
<svg version="1.0" xmlns="http://www.w3.org/2000/svg"
 width="1219.000000pt" height="1219.000000pt" viewBox="0 0 1219.000000 1219.000000"
 preserveAspectRatio="xMidYMid meet">
<metadata>
Created by potrace 1.11, written by Peter Selinger 2001-2013
</metadata>
<g transform="translate(0.000000,1219.000000) scale(0.100000,-0.100000)"
fill="#000000" stroke="none">
<path d="M3350 11722 c0 -4 -26 -8 -58 -9 -31 -2 -65 -3 -75 -3 -9 -1 -15 -5
-13 -9 3 -4 -7 -7 -22 -6 -15 0 -36 -5 -48 -12 -11 -7 -24 -10 -27 -6 -4 3 -7
1 -7 -5 0 -7 -9 -12 -19 -12 -11 0 -23 -5 -26 -10 -4 -6 -11 -8 -16 -5 -5 4
-9 1 -9 -4 0 -6 -7 -11 -15 -11 -8 0 -15 -5 -15 -11 0 -8 -6 -7 -17 2 -9 8
-14 9 -10 3 6 -11 -19 -29 -35 -26 -5 1 -8 -5 -8 -15 0 -9 -3 -14 -6 -10 -4 3
-22 -5 -42 -18 -19 -13 -40 -21 -45 -18 -5 3 -7 0 -5 -8 3 -8 -7 -19 -24 -26
-18 -8 -27 -17 -22 -24 4 -8 3 -9 -4 -5 -7 4 -12 2 -12 -3 0 -6 -9 -11 -21
-11 -11 0 -17 -4 -14 -10 3 -5 2 -10 -3 -10 -4 0 -38 -29 -75 -64 -36 -35 -68
-61 -72 -58 -3 3 -5 0 -5 -6 0 -6 -29 -40 -65 -76 -35 -36 -61 -66 -57 -66 4
0 -1 -5 -11 -11 -9 -6 -15 -14 -12 -20 4 -5 1 -9 -5 -9 -6 0 -18 -7 -26 -15
-9 -8 -12 -15 -8 -15 4 0 -2 -9 -14 -20 -12 -12 -22 -27 -22 -35 0 -9 -6 -12
-17 -8 -10 4 -14 2 -9 -5 3 -6 -2 -19 -13 -29 -11 -10 -21 -25 -23 -33 -4 -20
-22 -39 -31 -33 -4 2 -7 1 -6 -4 4 -21 -2 -34 -13 -27 -8 5 -9 2 -5 -9 4 -10
0 -20 -11 -26 -9 -6 -13 -11 -8 -11 5 0 1 -10 -10 -22 -10 -12 -13 -18 -5 -13
9 5 7 -2 -5 -18 -10 -15 -22 -27 -26 -27 -4 0 -4 -7 -1 -17 5 -12 3 -14 -7 -8
-10 6 -12 4 -7 -8 3 -9 1 -17 -4 -19 -6 -2 -11 -10 -13 -18 -1 -8 -7 -25 -14
-36 -6 -12 -8 -25 -4 -29 4 -5 1 -5 -5 -1 -7 4 -14 2 -14 -3 -4 -32 -30 -91
-41 -91 -5 0 -7 -4 -4 -9 6 -9 -16 -61 -26 -61 -4 0 -5 -9 -3 -20 2 -11 -1
-20 -6 -20 -6 0 -7 -4 -4 -10 3 -5 1 -10 -4 -10 -6 0 -11 -9 -11 -20 0 -11 -4
-20 -8 -20 -4 0 -9 -12 -10 -27 -1 -16 -7 -29 -12 -31 -6 -2 -10 -17 -10 -33
0 -16 -4 -29 -10 -29 -5 0 -10 -10 -10 -23 0 -13 -3 -27 -7 -31 -5 -4 -9 -12
-9 -17 -1 -5 -3 -10 -4 -11 -1 -2 -3 -14 -4 -28 -1 -14 -6 -32 -11 -40 -12
-19 -17 -38 -19 -72 -1 -21 -4 -24 -15 -15 -12 10 -12 9 -3 -10 8 -14 9 -24 2
-28 -5 -3 -10 -15 -10 -26 0 -12 -4 -17 -11 -13 -8 5 -8 1 0 -14 8 -15 8 -23
0 -27 -6 -4 -8 -13 -5 -21 3 -7 1 -16 -4 -19 -5 -3 -6 -13 -3 -22 4 -9 2 -14
-3 -10 -6 3 -9 -9 -9 -29 1 -19 -3 -34 -9 -34 -6 0 -4 -5 4 -10 12 -7 12 -10
1 -10 -7 0 -11 -6 -8 -15 4 -8 2 -17 -3 -20 -6 -4 -6 -14 1 -27 8 -15 8 -19 0
-13 -7 4 -11 -3 -11 -22 0 -66 -2 -73 -12 -67 -6 4 -6 -2 1 -15 9 -16 9 -21
-1 -21 -9 0 -9 -3 2 -10 8 -5 11 -10 5 -10 -5 0 -11 -30 -13 -68 -1 -37 -3
-86 -5 -109 -1 -24 2 -45 8 -47 7 -3 7 -5 0 -5 -7 -1 -10 -33 -8 -83 1 -46 3
-83 3 -83 2 0 10 -110 11 -139 0 -11 4 -27 9 -36 6 -11 5 -21 -2 -28 -7 -7 -8
-12 -2 -12 5 0 10 -8 11 -17 5 -59 16 -120 24 -129 5 -6 6 -14 3 -17 -4 -3 -3
-14 1 -24 4 -10 9 -25 11 -33 10 -55 17 -75 27 -82 8 -5 8 -8 1 -8 -15 0 -10
-40 6 -50 7 -4 14 -20 16 -35 2 -15 10 -43 19 -62 9 -19 14 -41 11 -49 -3 -9
-1 -12 4 -9 6 3 10 -1 10 -9 0 -9 5 -16 11 -16 6 0 8 -9 4 -20 -3 -11 -2 -20
3 -20 8 0 20 -27 20 -47 0 -3 5 -9 12 -13 6 -4 12 -14 14 -22 1 -8 9 -27 19
-41 9 -15 17 -33 17 -42 0 -8 5 -15 10 -15 6 0 10 -7 10 -15 0 -8 5 -15 12
-15 6 0 8 -3 5 -7 -4 -3 1 -12 11 -20 10 -9 11 -11 2 -7 -13 7 -13 6 0 -12 16
-20 27 -34 48 -59 7 -8 10 -15 7 -15 -3 0 3 -10 15 -22 11 -12 20 -26 20 -30
0 -14 54 -31 58 -19 2 6 7 9 11 6 5 -2 31 4 60 14 28 11 48 15 45 9 -4 -6 2
-6 14 1 29 15 133 8 197 -14 6 -1 20 -6 33 -10 12 -4 22 -10 22 -14 0 -4 16
-13 35 -21 19 -7 33 -16 31 -19 -2 -3 14 -19 35 -36 21 -16 38 -34 39 -38 0
-4 11 -20 24 -34 14 -15 23 -30 20 -35 -3 -4 0 -8 5 -8 16 0 13 -38 -3 -47 -8
-4 -16 -12 -17 -18 -5 -20 -34 -65 -42 -65 -5 0 -5 -4 -2 -10 3 -5 1 -10 -4
-10 -6 0 -10 -3 -9 -7 2 -11 -36 -73 -45 -73 -5 0 -5 -5 -2 -10 3 -6 -1 -13
-9 -16 -9 -3 -13 -10 -10 -15 3 -5 0 -9 -7 -9 -7 0 -10 -3 -6 -6 3 -3 2 -17
-3 -30 -6 -15 -6 -24 0 -24 6 0 10 -8 10 -19 0 -10 7 -31 14 -47 8 -15 13 -31
10 -36 -3 -4 0 -8 5 -8 6 0 11 -7 11 -15 0 -8 5 -15 12 -15 6 0 9 -3 5 -6 -3
-3 1 -13 9 -22 8 -10 14 -20 14 -24 0 -4 10 -18 23 -31 12 -13 38 -41 58 -63
20 -21 44 -47 55 -56 10 -9 25 -24 32 -33 7 -8 18 -12 24 -9 7 4 8 2 4 -4 -4
-7 -1 -12 8 -12 9 0 16 -7 16 -16 0 -8 4 -13 9 -10 4 3 16 -3 26 -14 10 -11
22 -20 27 -20 5 0 18 -9 30 -20 12 -11 28 -20 35 -20 7 0 13 -4 13 -10 0 -5 7
-10 15 -10 8 0 15 -5 15 -11 0 -5 4 -8 9 -5 5 3 14 -1 21 -9 7 -8 19 -15 26
-15 8 0 14 -5 14 -11 0 -5 4 -7 10 -4 5 3 10 1 10 -6 0 -7 3 -9 6 -6 4 4 19
-2 34 -13 15 -11 30 -17 34 -13 3 3 6 0 6 -7 0 -7 3 -11 6 -7 3 3 31 -7 62
-23 31 -16 60 -26 64 -24 4 3 8 1 8 -4 0 -6 7 -13 16 -16 10 -4 13 -2 9 7 -4
6 0 4 8 -5 8 -10 16 -15 20 -12 3 3 13 1 24 -4 44 -24 88 -40 95 -36 4 3 8 1
8 -4 0 -5 6 -9 13 -10 19 -2 101 -26 107 -32 6 -6 29 -12 47 -13 13 0 27 -27
14 -27 -8 0 -5 -89 3 -98 3 -3 1 -11 -5 -19 -8 -8 -8 -13 -1 -13 6 0 9 -8 7
-17 -1 -10 2 -26 7 -37 7 -14 7 -16 -2 -11 -9 5 -9 3 -2 -11 5 -11 8 -29 7
-41 -1 -13 2 -23 6 -23 4 0 10 -7 13 -16 4 -10 2 -13 -7 -8 -8 6 -8 3 1 -9 8
-9 11 -21 7 -27 -3 -5 -1 -10 5 -10 7 0 10 -7 6 -15 -3 -8 -2 -15 3 -15 4 0 8
-6 9 -12 6 -47 10 -60 20 -70 7 -7 12 -18 12 -25 0 -7 4 -13 10 -13 5 0 6 -7
3 -17 -5 -12 -3 -14 7 -8 10 6 12 4 7 -8 -3 -9 0 -23 8 -31 8 -7 11 -17 7 -21
-4 -3 1 -11 11 -16 9 -6 17 -19 17 -29 0 -10 7 -23 16 -28 9 -5 16 -13 16 -18
1 -10 27 -53 44 -71 7 -7 22 -29 34 -49 13 -20 33 -47 46 -59 13 -13 24 -29
24 -35 0 -5 7 -10 16 -10 11 0 14 -5 10 -17 -4 -10 -4 -14 0 -11 8 8 34 -14
27 -24 -2 -5 3 -8 11 -8 8 0 18 -5 22 -12 5 -7 3 -8 -7 -3 -12 8 -12 6 0 -8 7
-9 19 -17 27 -17 7 0 16 -9 19 -20 3 -11 13 -20 21 -20 8 0 14 -7 14 -16 0 -8
4 -13 9 -9 5 3 12 -3 16 -14 3 -10 17 -22 30 -25 14 -4 24 -10 24 -14 -4 -22
3 -34 15 -29 8 3 17 -1 20 -9 3 -9 11 -12 16 -9 6 4 9 1 8 -7 -2 -7 3 -12 9
-11 7 2 12 -3 10 -10 -1 -6 3 -11 10 -10 6 2 15 -7 18 -19 5 -15 9 -17 15 -8
6 9 10 7 15 -9 3 -11 13 -21 22 -21 8 0 17 -9 20 -20 3 -11 10 -20 17 -20 6 0
4 -5 -4 -10 -8 -5 -10 -10 -3 -10 7 0 9 -13 6 -37 -2 -21 -5 -42 -5 -48 -1 -5
2 -21 6 -34 5 -14 4 -21 -1 -18 -11 7 -11 -23 1 -41 4 -7 2 -12 -6 -12 -10 0
-9 -3 1 -9 12 -8 12 -12 2 -24 -9 -12 -9 -16 1 -19 10 -4 10 -9 -2 -23 -8 -10
-10 -16 -4 -12 15 9 14 -45 -1 -55 -6 -5 -5 -8 3 -8 6 0 12 -9 12 -21 0 -13
-4 -18 -12 -13 -10 6 -10 4 -2 -7 14 -17 23 -89 12 -89 -5 0 -4 -8 1 -19 6
-10 7 -21 4 -25 -3 -3 0 -6 8 -6 11 0 11 -2 -1 -10 -13 -8 -13 -13 -2 -31 11
-17 11 -20 0 -13 -11 6 -11 5 0 -8 10 -13 10 -17 0 -21 -10 -4 -10 -6 0 -6 6
-1 12 -11 12 -24 0 -13 6 -29 13 -36 10 -11 10 -13 0 -7 -8 4 -13 1 -13 -7 0
-8 -7 -18 -16 -21 -8 -3 -13 -10 -9 -16 3 -5 -8 -23 -24 -39 -19 -19 -26 -31
-18 -35 9 -3 9 -5 0 -5 -17 -1 -53 -38 -46 -45 4 -3 1 -6 -6 -6 -7 0 -38 -26
-69 -57 -31 -32 -47 -47 -37 -34 l20 25 -26 -20 c-15 -10 -24 -23 -21 -28 3
-5 -2 -6 -12 -3 -10 4 -15 3 -11 -3 6 -9 -9 -15 -29 -11 -5 1 -3 -5 4 -14 11
-13 10 -14 -5 -9 -10 4 -21 1 -26 -7 -7 -12 -9 -12 -9 1 -1 8 -5 5 -11 -8 -5
-13 -13 -20 -19 -17 -5 3 -10 1 -10 -6 0 -7 -3 -9 -6 -6 -4 4 -15 -2 -25 -14
-12 -14 -18 -16 -22 -7 -4 8 -6 7 -6 -4 -1 -10 -6 -18 -12 -18 -6 0 -28 -18
-50 -40 -22 -22 -45 -37 -51 -34 -7 4 -8 2 -4 -5 8 -13 -16 -41 -36 -41 -11 0
-11 -2 0 -9 10 -6 9 -10 -7 -14 -12 -3 -21 -12 -21 -21 0 -9 -7 -16 -15 -16
-8 0 -12 -6 -9 -13 3 -8 -3 -20 -12 -28 -15 -12 -17 -12 -9 0 5 9 4 12 -3 7
-6 -4 -8 -14 -5 -23 4 -11 3 -14 -5 -9 -7 4 -12 2 -12 -5 0 -6 -8 -18 -17 -26
-12 -10 -13 -12 -3 -8 8 4 6 -1 -4 -9 -11 -9 -17 -16 -13 -16 5 0 2 -6 -5 -14
-7 -8 -17 -12 -23 -9 -5 2 -1 -3 10 -13 17 -14 17 -16 3 -11 -16 6 -19 2 -18
-19 1 -3 -9 -14 -22 -25 -13 -11 -17 -17 -10 -14 11 6 12 3 2 -14 -6 -12 -17
-24 -24 -27 -7 -3 -12 -16 -10 -30 1 -13 -1 -22 -5 -20 -3 2 -16 -13 -28 -35
-12 -22 -17 -36 -11 -33 13 8 2 -13 -21 -39 -13 -16 -13 -19 -1 -27 12 -8 10
-10 -7 -10 -13 0 -23 -5 -23 -11 0 -5 5 -7 11 -3 6 3 4 -5 -5 -18 -9 -14 -13
-28 -9 -31 3 -4 0 -7 -7 -7 -7 0 -10 -3 -7 -7 4 -3 -1 -15 -10 -26 -13 -15
-14 -18 -3 -12 12 7 13 6 4 -6 -6 -8 -14 -26 -18 -42 -3 -15 -11 -27 -17 -27
-6 0 -6 -7 1 -20 8 -16 8 -20 -2 -18 -7 2 -12 -3 -10 -11 1 -7 -5 -20 -15 -28
-10 -8 -12 -11 -4 -7 11 6 13 3 6 -12 -4 -10 -8 -27 -9 -36 0 -10 -4 -18 -9
-18 -5 0 -6 -7 -3 -16 4 -9 2 -13 -5 -8 -7 4 -9 0 -5 -14 5 -13 1 -22 -10 -26
-12 -5 -13 -10 -6 -19 7 -8 7 -18 2 -27 -5 -8 -6 -18 -4 -22 3 -4 1 -8 -4 -8
-6 0 -13 -7 -16 -16 -3 -8 -2 -12 4 -9 6 3 10 2 10 -4 0 -5 -5 -13 -10 -16 -8
-5 -7 -12 2 -23 10 -12 10 -14 1 -8 -13 7 -17 -4 -14 -33 2 -7 -2 -10 -8 -6
-7 3 -8 0 -5 -9 3 -9 1 -29 -4 -46 -7 -20 -7 -32 -1 -36 7 -4 5 -12 -4 -22 -8
-10 -13 -27 -12 -40 1 -12 -2 -22 -6 -22 -5 0 -6 -6 -3 -14 3 -8 0 -17 -6 -21
-8 -5 -8 -10 0 -20 7 -9 8 -15 1 -19 -6 -4 -7 -14 -4 -23 4 -10 2 -14 -4 -10
-7 5 -9 0 -6 -12 3 -10 0 -22 -7 -26 -8 -5 -8 -10 1 -21 8 -10 8 -18 1 -27 -7
-7 -10 -30 -9 -50 2 -20 0 -37 -5 -37 -4 0 -5 -6 -2 -14 3 -8 1 -24 -5 -35 -8
-13 -8 -22 -1 -26 6 -4 7 -12 3 -18 -15 -24 -21 -105 -10 -124 4 -7 3 -14 -3
-18 -6 -4 -8 -10 -6 -14 3 -4 1 -13 -5 -21 -5 -8 -9 -10 -9 -4 0 6 -13 10 -30
9 -16 -1 -30 1 -30 5 0 9 -42 6 -59 -4 -10 -6 -12 -5 -7 2 4 7 3 12 -3 12 -5
0 -12 -4 -16 -10 -3 -5 -12 -7 -20 -3 -8 3 -15 0 -15 -7 0 -6 -5 -8 -10 -5 -6
3 -13 -1 -16 -10 -5 -13 -9 -13 -22 -3 -9 7 -13 9 -10 3 6 -12 -48 -66 -57
-56 -4 3 -6 1 -5 -4 5 -21 0 -36 -10 -30 -5 3 -10 -3 -10 -14 0 -12 -5 -21
-10 -21 -6 0 -9 -3 -8 -7 1 -5 -3 -18 -10 -30 -7 -13 -10 -23 -7 -23 3 0 -1
-15 -8 -33 -8 -17 -13 -40 -11 -50 1 -9 -1 -17 -5 -17 -4 0 -7 -17 -6 -38 1
-20 -3 -43 -8 -49 -6 -9 -5 -13 4 -13 11 0 11 -2 -1 -10 -8 -5 -10 -10 -4 -10
6 0 10 -19 8 -47 -1 -27 3 -54 9 -60 6 -9 6 -13 -2 -13 -7 0 -8 -8 -1 -25 5
-14 7 -25 4 -25 -4 0 -1 -7 6 -15 7 -9 10 -18 7 -22 -4 -3 -2 -14 3 -24 6 -10
11 -29 12 -43 1 -15 6 -26 11 -26 4 0 6 -4 2 -9 -3 -5 0 -15 7 -23 7 -7 13
-17 14 -23 1 -23 17 -65 24 -65 6 0 17 -25 19 -46 0 -2 6 -11 13 -19 30 -33
38 -45 38 -55 0 -5 5 -10 10 -10 6 0 10 -7 10 -15 0 -8 7 -15 16 -15 8 0 13
-3 10 -8 -2 -4 12 -21 31 -37 20 -17 45 -38 55 -49 20 -18 99 -57 128 -63 8
-2 39 -3 68 -4 28 -1 52 -5 52 -11 0 -5 -6 -6 -12 -2 -10 6 -10 4 -1 -7 7 -7
13 -21 13 -30 0 -10 5 -21 12 -25 7 -5 8 -3 3 6 -5 9 -4 11 4 6 9 -6 9 -11 0
-22 -8 -10 -8 -14 0 -14 6 0 10 -6 9 -13 -2 -6 2 -11 8 -10 7 1 10 -6 7 -17
-3 -12 0 -20 6 -20 7 0 9 -4 6 -10 -3 -5 -2 -10 4 -10 6 0 8 -6 5 -13 -3 -8 2
-20 10 -27 9 -7 13 -16 10 -21 -3 -5 -1 -9 5 -9 6 0 8 -7 4 -15 -3 -10 -1 -15
7 -13 7 2 14 -6 16 -16 1 -10 8 -22 14 -26 7 -4 12 -11 13 -16 1 -5 6 -8 10
-6 5 1 6 -2 3 -7 -4 -5 -1 -13 5 -16 5 -4 8 -14 5 -22 -3 -8 -1 -11 4 -8 9 6
14 -8 11 -28 -1 -5 3 -5 9 -2 7 4 14 -2 17 -13 3 -11 11 -23 19 -26 8 -3 14
-13 14 -21 0 -9 4 -13 10 -10 6 3 10 1 10 -5 0 -6 11 -22 25 -36 14 -14 25
-29 25 -34 0 -6 6 -10 13 -10 8 0 20 -11 27 -25 7 -14 17 -25 21 -25 5 0 19
-11 32 -24 14 -14 28 -22 31 -19 3 4 6 -1 6 -10 0 -10 4 -17 9 -17 13 0 111
-61 111 -69 0 -4 9 -7 21 -8 11 -1 29 -11 39 -23 13 -15 19 -17 23 -8 4 10 6
10 6 1 1 -7 10 -13 20 -13 11 0 23 -4 26 -10 3 -5 15 -10 26 -10 10 0 19 -5
19 -12 0 -6 3 -9 6 -6 3 3 29 -1 57 -9 29 -8 68 -16 87 -17 19 -2 35 -4 35 -6
0 -2 31 -6 95 -11 25 -2 48 -8 52 -14 5 -7 8 -7 8 0 0 7 38 10 100 10 55 0
100 3 100 7 0 4 8 7 18 6 9 0 31 4 47 8 17 4 38 7 47 8 9 0 14 4 12 8 -3 4 6
8 20 8 14 0 28 5 31 10 4 6 11 8 16 5 5 -4 9 -1 9 4 0 6 3 10 8 10 18 -3 33 2
28 9 -2 4 5 9 16 9 12 1 25 8 29 15 5 7 9 9 9 5 0 -5 7 -1 16 7 8 9 20 14 25
11 5 -4 9 1 9 9 0 9 7 16 15 16 9 0 34 18 55 40 22 23 40 38 40 34 0 -8 38 33
58 62 13 19 13 19 7 0 -5 -16 -3 -17 10 -6 8 7 15 8 15 3 0 -9 66 -42 95 -49
6 -1 12 -3 15 -4 43 -17 299 -14 329 4 5 4 19 -6 30 -20 12 -15 21 -23 21 -18
0 5 12 -4 26 -19 14 -15 29 -25 34 -22 4 3 10 -2 14 -10 5 -13 60 -42 151 -79
17 -7 40 -11 53 -10 12 1 22 -3 22 -9 0 -5 7 -4 15 3 8 7 15 8 15 3 0 -11 50
-10 68 1 8 4 16 5 19 2 3 -3 20 1 38 9 19 7 35 11 38 9 2 -3 10 2 16 10 11 13
17 11 42 -15 16 -17 26 -35 23 -42 -4 -7 -4 -9 1 -5 9 8 35 -15 35 -32 0 -6 5
-8 12 -4 8 5 9 2 5 -9 -4 -11 -1 -17 8 -17 8 0 15 -7 15 -16 0 -8 5 -12 10 -9
6 3 10 -1 10 -10 0 -9 4 -13 10 -10 6 3 10 -2 10 -12 0 -12 7 -7 22 17 12 19
21 45 19 58 -1 13 3 30 11 39 9 12 9 15 1 9 -9 -5 -13 0 -12 16 0 29 -5 62
-11 68 -12 12 -30 51 -30 65 0 9 -4 14 -8 11 -4 -2 -9 4 -9 15 -1 15 5 19 31
19 17 0 38 -6 45 -12 11 -11 12 -10 6 0 -6 12 -3 12 16 1 13 -7 27 -12 31 -11
4 1 30 -9 59 -23 29 -13 56 -22 61 -19 4 3 8 -2 8 -11 0 -9 4 -13 10 -10 5 3
20 -1 33 -10 14 -9 35 -18 48 -21 45 -10 142 -4 158 10 9 7 30 19 48 27 17 7
30 16 29 19 -1 3 8 15 21 27 13 12 23 19 23 15 0 -4 5 0 10 8 9 13 11 13 20 0
9 -13 10 -13 10 0 0 13 2 13 9 0 6 -8 7 -18 4 -23 -3 -5 5 -4 17 3 15 8 20 8
16 1 -6 -10 13 -16 37 -12 5 1 6 -2 3 -7 -3 -5 6 -15 19 -22 14 -7 27 -22 31
-32 5 -16 8 -17 22 -6 12 10 14 10 8 1 -4 -8 -2 -13 4 -13 6 0 8 -5 5 -10 -3
-6 3 -10 15 -10 14 0 19 -4 14 -12 -5 -8 -2 -9 10 -5 14 5 15 3 6 -12 -8 -16
-7 -18 8 -14 11 2 27 -7 42 -24 l25 -28 -26 23 c-19 17 -26 19 -26 8 0 -8 4
-13 8 -11 3 3 12 -2 19 -11 7 -8 19 -13 27 -10 8 3 11 1 8 -4 -3 -5 5 -15 19
-22 14 -6 26 -18 27 -27 0 -12 3 -11 9 4 l9 20 1 -20 c2 -11 2 -24 1 -29 -1
-5 6 -6 15 -2 9 3 23 1 31 -6 11 -9 13 -8 11 3 -2 8 3 13 11 11 11 -2 12 0 3
11 -9 10 -9 16 0 25 9 9 9 12 0 12 -7 0 -10 14 -7 40 2 22 -2 45 -8 52 -7 7
-14 24 -15 38 -2 14 -8 27 -13 28 -6 2 -4 11 3 20 11 14 10 15 -7 8 -11 -4
-16 -4 -12 0 4 4 -1 17 -10 28 -17 20 -17 20 0 7 15 -12 17 -12 11 3 -3 9 -13
16 -21 16 -8 0 -11 5 -8 10 3 6 0 10 -7 10 -9 0 -9 3 2 10 12 8 11 10 -7 10
-17 0 -21 4 -16 17 5 12 2 15 -10 10 -10 -4 -16 -2 -14 6 1 7 -3 11 -9 10 -6
-1 -11 4 -11 12 0 8 4 12 8 10 19 -12 167 -4 189 10 6 3 10 2 10 -4 0 -5 8 -8
18 -6 9 1 26 -5 36 -14 11 -9 16 -10 12 -3 -7 11 -4 11 13 0 12 -7 21 -17 21
-23 0 -5 5 -3 10 5 8 13 10 13 10 -2 0 -12 6 -16 20 -13 11 2 18 0 15 -4 -3
-5 2 -12 11 -15 8 -3 13 -2 10 3 -4 5 5 4 19 -2 14 -7 25 -16 25 -20 0 -5 4
-5 10 -2 6 3 10 1 10 -4 0 -6 9 -11 20 -11 11 0 20 -5 20 -12 0 -6 3 -8 7 -5
3 4 14 0 23 -8 16 -14 19 -14 35 1 13 14 14 19 3 25 -10 7 -10 9 2 9 13 1 12
2 -1 10 -11 6 -15 18 -11 35 3 17 0 25 -9 25 -11 0 -11 2 1 10 13 8 12 10 -3
10 -10 0 -15 4 -12 10 3 5 1 10 -4 10 -6 0 -11 5 -11 11 0 7 -11 22 -24 34
-14 13 -22 26 -19 29 4 3 -1 6 -11 6 -9 0 -19 7 -22 15 -4 8 -11 12 -18 8 -6
-3 -7 -2 -3 2 10 11 37 16 37 6 0 -4 12 -8 26 -9 14 -1 31 -5 37 -9 7 -4 18
-8 26 -10 8 -1 18 -8 22 -15 5 -7 9 -9 9 -5 0 9 95 -39 122 -62 10 -8 18 -11
18 -6 0 4 7 2 15 -5 8 -7 15 -9 15 -5 0 4 11 0 24 -8 13 -9 27 -13 30 -10 4 4
29 7 57 8 31 1 54 7 59 15 5 8 12 11 16 7 4 -4 16 0 26 10 10 9 18 13 18 9 0
-4 7 -1 15 6 33 30 43 36 63 40 12 2 28 -6 37 -17 9 -11 14 -14 10 -7 -3 6 -1
12 4 12 6 0 11 -7 11 -16 0 -8 5 -12 10 -9 6 3 10 1 10 -6 0 -7 3 -9 6 -6 4 4
14 -1 23 -11 9 -9 25 -22 35 -28 11 -6 24 -19 30 -30 14 -25 28 -35 42 -30 8
3 10 -3 6 -16 -3 -14 -1 -19 6 -14 7 4 12 1 12 -8 0 -9 9 -16 21 -16 11 0 18
-4 14 -9 -3 -5 -1 -12 5 -16 6 -4 8 -11 5 -16 -4 -5 2 -6 11 -2 13 5 16 3 11
-10 -4 -11 -2 -14 9 -10 10 4 17 -2 21 -17 4 -16 8 -18 14 -8 7 10 9 10 9 1 0
-7 7 -13 15 -13 8 0 15 -4 15 -9 0 -5 7 -12 16 -15 15 -6 15 -4 3 11 -13 15
-12 16 9 11 18 -5 21 -4 13 6 -6 7 -8 16 -4 19 3 4 7 18 8 32 0 18 -3 24 -14
20 -11 -4 -12 -3 -1 10 7 8 9 15 5 15 -4 0 -2 7 5 16 8 8 9 14 4 13 -20 -3
-28 2 -16 10 11 6 10 11 -3 25 -9 9 -12 16 -6 16 6 0 11 5 11 11 0 5 -5 7 -12
3 -8 -5 -9 -2 -5 9 4 10 2 17 -4 17 -6 0 -9 7 -5 15 3 8 1 15 -4 15 -5 0 -6 7
-3 17 4 9 2 14 -3 10 -6 -3 -16 -2 -24 4 -11 6 -12 9 -2 9 7 0 10 5 7 10 -4 6
-11 7 -17 4 -7 -5 -9 -2 -6 8 4 8 -2 22 -14 32 -15 14 -17 20 -8 31 7 8 16 12
21 9 5 -3 6 3 2 12 -4 12 -3 15 5 10 7 -4 12 -2 12 6 0 9 3 9 10 -2 5 -8 10
-11 10 -6 0 5 8 2 17 -5 14 -12 16 -12 8 0 -6 11 -4 13 9 8 10 -4 20 -7 22 -7
3 0 3 -3 1 -7 -3 -5 5 -9 18 -9 29 -2 85 -26 85 -36 0 -5 3 -7 8 -7 20 3 32
-2 26 -13 -4 -6 -3 -8 3 -5 5 3 21 0 36 -8 14 -7 28 -11 31 -7 3 3 6 -3 6 -14
0 -16 2 -17 10 -4 6 10 10 11 10 3 0 -7 7 -13 15 -13 8 0 15 -5 15 -11 0 -6 9
-9 20 -6 11 3 18 2 16 -1 -5 -10 20 -32 28 -25 3 4 6 1 6 -4 0 -6 11 -10 24
-9 16 2 23 -1 20 -9 -3 -8 3 -12 17 -11 24 1 40 26 17 26 -10 0 -10 2 1 9 13
8 13 12 0 27 -8 10 -9 15 -4 12 6 -4 11 2 11 12 0 10 -6 16 -12 13 -8 -3 -11
3 -10 13 2 10 -7 26 -18 36 -20 17 -20 18 -1 12 18 -5 18 -5 2 6 -9 6 -15 15
-12 21 4 5 -2 6 -11 2 -13 -5 -16 -3 -11 10 5 13 1 17 -15 17 -12 0 -19 3 -15
6 8 8 -18 34 -33 34 -6 0 -9 4 -5 9 3 5 -5 11 -17 13 -13 2 -22 9 -21 15 2 7
-6 10 -17 8 -12 -2 -18 -1 -16 4 3 4 -8 15 -25 25 -16 9 -29 14 -29 9 0 -4 -4
-3 -8 2 -10 15 -49 35 -67 35 -8 0 -15 4 -15 9 0 5 -6 9 -12 8 -33 -1 -49 4
-43 13 3 6 -1 10 -10 10 -13 0 -14 4 -4 23 11 20 11 21 -5 8 -9 -8 -19 -11
-23 -7 -3 3 -1 6 6 6 8 0 7 8 -3 29 -9 16 -12 32 -8 36 4 5 2 5 -4 2 -13 -8
-57 27 -47 37 3 3 -1 6 -10 6 -9 0 -17 4 -17 9 0 5 -9 11 -21 14 -17 5 -19 9
-9 27 6 11 15 18 20 15 6 -3 7 1 4 10 -4 9 2 23 15 35 12 10 21 20 20 22 -2 2
14 32 35 68 21 36 39 71 40 78 2 8 9 18 17 23 8 5 10 9 5 9 -5 0 -3 6 3 13 6
8 8 17 4 20 -3 4 1 9 10 13 9 3 13 12 10 21 -4 11 -2 14 5 9 7 -4 12 -2 12 6
0 11 2 11 9 0 4 -8 14 -13 22 -12 27 4 40 0 34 -11 -5 -7 -1 -7 14 0 12 6 30
16 42 22 17 8 20 8 14 -3 -4 -7 3 -2 14 12 11 14 21 21 21 15 0 -5 5 -2 11 8
6 9 14 15 18 13 4 -3 13 4 20 16 10 16 10 19 -1 13 -7 -4 -2 2 11 13 15 12 21
24 16 32 -5 9 -4 11 3 6 8 -5 12 1 12 14 0 12 4 19 9 16 5 -4 7 3 4 14 -3 13
0 20 8 20 11 0 11 2 -1 10 -9 6 -10 10 -3 10 14 0 13 42 -2 52 -6 5 -6 8 2 8
7 0 10 7 7 15 -4 8 -11 12 -17 8 -6 -3 -7 -1 -3 6 9 15 -20 44 -48 47 -11 1
-23 3 -25 3 -2 1 2 8 9 16 7 8 10 22 6 30 -3 8 -1 15 5 15 6 0 8 4 4 10 -3 5
-8 32 -11 61 -4 38 -3 49 6 44 9 -6 9 -2 1 14 -10 17 -9 20 4 15 8 -4 17 1 21
10 3 9 11 13 17 9 6 -4 8 0 4 11 -4 9 -3 15 1 13 4 -3 13 1 20 9 7 8 10 14 7
14 -3 0 6 11 21 25 16 15 22 25 13 25 -11 0 -11 2 1 10 8 5 11 10 5 10 -5 0
-2 5 8 11 11 7 16 18 13 34 -4 19 -1 22 12 18 11 -5 14 -2 9 10 -4 10 -2 17 5
17 7 0 3 7 -8 16 -10 8 -14 13 -9 10 6 -2 17 -1 25 5 12 7 12 9 1 9 -11 0 -11
3 0 17 12 15 12 16 -1 8 -10 -6 -9 -2 3 12 11 12 14 24 9 27 -6 3 -8 16 -5 29
4 18 3 19 -6 7 -13 -18 -14 -1 -2 19 7 10 4 19 -7 29 -9 7 -11 10 -3 6 11 -5
13 -3 8 10 -4 10 -7 20 -7 22 0 3 -5 2 -11 -2 -8 -4 -8 -1 -1 13 9 15 8 20 -3
20 -8 0 -11 -5 -8 -10 4 -6 1 -7 -6 -3 -7 5 -10 14 -7 22 3 8 0 11 -10 7 -8
-3 -14 1 -14 10 0 10 -8 13 -26 9 -19 -3 -25 -1 -20 7 5 8 0 8 -19 1 -34 -13
-38 -13 -29 2 5 7 3 8 -7 2 -29 -18 -79 2 -64 25 3 5 -4 12 -15 16 -11 3 -19
11 -17 17 1 6 -9 17 -21 24 -17 8 -20 13 -10 17 7 3 3 6 -10 6 -13 1 -20 5
-17 11 3 6 -1 10 -10 10 -10 0 -13 5 -9 13 5 8 2 8 -9 -2 -15 -12 -17 -11 -17
2 0 10 -6 14 -15 11 -8 -4 -15 -1 -15 6 0 10 -3 10 -14 1 -9 -8 -15 -8 -18 -1
-1 5 -13 12 -26 15 -12 2 -28 7 -35 11 -7 5 -6 0 3 -11 11 -14 12 -17 1 -11
-21 13 -92 14 -81 1 6 -7 3 -11 -10 -11 -10 0 -17 3 -15 6 2 4 -2 7 -10 7 -8
0 -14 -3 -13 -6 3 -28 -3 -33 -18 -15 -8 10 -13 13 -9 7 3 -7 1 -13 -5 -13 -6
0 -9 -4 -6 -8 2 -4 -5 -14 -17 -22 -19 -11 -20 -11 -10 1 10 12 8 15 -6 15
-10 0 -17 -6 -14 -12 2 -7 -9 -20 -25 -30 -21 -12 -29 -23 -27 -37 4 -16 2
-17 -11 -6 -12 10 -13 9 -8 -5 3 -9 1 -16 -6 -16 -6 0 -8 -4 -5 -10 4 -6 -1
-7 -11 -3 -13 5 -15 3 -9 -8 8 -12 6 -12 -8 0 -15 12 -17 12 -12 -1 4 -9 0
-15 -9 -15 -8 0 -12 5 -9 10 4 6 0 8 -8 5 -9 -4 -19 4 -26 18 -8 18 -8 22 0
17 7 -3 4 2 -6 13 -40 43 -56 67 -51 76 3 4 2 8 -3 7 -20 -3 -33 2 -31 14 2 6
-3 11 -9 9 -12 -2 -17 11 -14 31 1 5 -3 6 -8 3 -5 -4 -13 0 -18 8 -4 8 -12 15
-18 16 -5 1 -9 6 -7 12 1 5 -2 7 -8 3 -5 -3 -13 1 -16 10 -6 13 -8 14 -15 3
-7 -10 -9 -10 -9 0 0 6 -6 12 -14 12 -8 0 -17 7 -20 16 -3 9 -12 14 -20 11 -7
-3 -19 0 -25 6 -6 6 -11 8 -11 4 0 -4 -10 -2 -22 5 -13 6 -36 12 -53 13 -16 0
-36 4 -42 8 -7 5 -13 4 -13 -2 0 -6 -11 -6 -30 -1 -20 6 -30 5 -30 -2 0 -7 -4
-7 -13 1 -8 6 -17 9 -20 6 -4 -3 -5 -2 -2 1 2 4 -5 29 -15 57 -11 27 -17 54
-14 59 3 4 2 8 -3 8 -4 0 -13 11 -20 25 -6 15 -7 22 -1 19 5 -4 4 4 -3 17 -7
13 -12 30 -11 36 2 7 -2 13 -9 13 -6 0 -9 8 -6 19 3 12 -1 22 -9 25 -8 3 -14
17 -14 31 0 14 -5 25 -11 25 -5 0 -7 5 -4 10 3 6 0 13 -9 16 -8 3 -13 11 -10
19 3 7 -1 15 -9 18 -9 3 -13 16 -12 32 3 23 1 24 -13 13 -10 -8 -13 -8 -9 -1
9 14 -21 46 -35 37 -6 -4 -5 2 1 15 8 15 9 21 1 21 -6 0 -8 4 -5 10 4 6 -1 7
-12 3 -16 -6 -17 -5 -3 12 8 10 10 16 5 13 -6 -4 -17 2 -24 14 -10 16 -10 19
1 12 10 -6 10 -4 -1 9 -7 9 -18 14 -23 11 -6 -4 -7 2 -3 17 7 22 6 23 -9 10
-15 -12 -17 -12 -14 0 2 8 8 17 13 21 6 5 3 8 -7 8 -9 0 -20 5 -24 12 -5 7 -3
8 5 3 10 -6 11 -3 2 14 -7 11 -14 21 -17 21 -3 0 -2 -5 2 -12 4 -7 3 -8 -5 -4
-9 6 -9 11 1 24 8 10 9 13 1 9 -6 -4 -15 -2 -20 5 -11 18 -13 39 -3 33 4 -3 3
6 -3 20 -7 14 -15 25 -19 25 -5 0 -8 9 -8 21 0 11 -4 18 -9 15 -5 -3 -12 1
-15 10 -4 10 -2 13 7 8 6 -4 2 4 -10 18 -13 13 -23 28 -23 33 0 4 -11 23 -25
40 -13 18 -21 35 -18 39 4 3 2 6 -4 6 -13 0 -31 40 -27 60 6 32 13 56 20 74 6
15 4 17 -7 11 -11 -7 -12 -6 -2 6 13 16 26 86 24 127 0 13 4 20 9 17 5 -3 7 0
4 8 -3 8 -6 61 -7 118 -1 57 -6 110 -10 117 -5 7 -3 12 5 12 10 0 10 2 0 8 -7
5 -13 25 -14 46 -1 20 -5 39 -10 42 -4 3 -8 16 -8 30 0 13 -4 24 -9 24 -4 0
-8 8 -8 18 0 36 -3 43 -15 36 -8 -5 -7 0 2 11 12 15 12 17 1 10 -11 -6 -13 -4
-8 8 3 10 2 17 -4 17 -6 0 -7 5 -4 10 3 6 2 10 -4 10 -6 0 -7 7 -4 17 4 11 3
14 -5 9 -8 -5 -14 3 -18 23 -4 17 -11 28 -16 25 -6 -4 -5 3 1 15 10 18 9 20
-5 14 -12 -4 -15 -3 -10 5 4 7 2 12 -4 12 -6 0 -8 4 -5 10 3 6 -1 10 -9 10 -9
0 -16 5 -16 11 0 5 5 7 11 3 7 -4 10 -1 7 7 -3 8 -10 14 -16 14 -5 0 -14 4
-19 9 -4 5 -3 6 3 3 7 -4 14 1 16 11 3 11 0 19 -8 19 -7 0 -10 -5 -7 -10 3 -6
2 -7 -4 -4 -5 3 -9 22 -8 42 1 19 0 33 -3 31 -2 -3 -12 -1 -21 3 -11 6 -16 21
-15 45 1 20 -2 33 -7 30 -5 -3 -6 -10 -3 -16 4 -7 2 -8 -4 -4 -6 4 -9 13 -5
21 3 8 0 15 -6 15 -6 0 -11 7 -11 15 0 8 -6 15 -12 15 -8 1 -6 6 4 14 10 7 15
16 11 19 -3 4 -1 7 5 7 7 0 12 -4 12 -10 0 -5 4 -10 10 -10 5 0 7 6 4 13 -3 8
3 20 13 28 16 13 17 12 4 -4 -12 -15 -12 -17 3 -11 9 3 16 10 16 15 0 5 7 9
15 9 9 0 18 7 21 15 4 8 10 12 15 9 5 -3 6 2 3 10 -4 11 0 16 14 16 12 0 28
10 36 22 9 12 16 19 16 14 0 -5 8 -2 17 5 14 12 16 12 9 -1 -6 -12 -5 -12 6 1
7 8 28 22 46 30 17 7 32 18 32 23 0 4 9 6 19 3 12 -3 18 0 15 7 -2 6 5 12 16
13 11 1 27 9 36 18 9 9 24 13 32 10 9 -3 13 -3 10 1 -10 10 34 43 49 37 7 -3
13 0 13 5 0 6 9 9 20 7 11 -2 19 1 17 8 -1 7 4 11 11 9 6 -1 12 2 12 8 0 5 7
7 15 4 8 -4 17 1 21 10 5 13 9 14 21 5 11 -10 13 -9 11 2 -2 8 4 13 14 13 10
-1 15 2 12 7 -3 5 3 9 12 9 9 0 32 11 51 26 18 14 33 21 33 15 0 -5 -6 -12
-12 -14 -10 -4 -10 -6 0 -6 7 -1 15 6 19 15 5 13 7 13 14 2 6 -9 9 -6 9 12 0
20 2 22 11 10 8 -11 12 -12 16 -2 2 6 11 12 18 12 7 0 16 -6 19 -12 3 -7 4 -4
3 7 -1 12 4 20 13 20 8 0 23 11 34 25 14 20 17 21 12 5 -5 -15 -1 -14 18 8 16
19 26 24 29 15 3 -8 6 -6 6 5 1 10 6 15 11 12 6 -3 10 -1 10 4 0 6 7 11 16 11
10 0 14 6 10 15 -3 8 0 14 7 12 7 -1 11 3 10 10 -2 8 4 10 15 6 9 -3 14 -3 10
2 -4 4 4 18 18 30 17 14 24 28 19 35 -5 9 -4 11 3 6 7 -4 12 -2 12 5 0 7 3 9
7 6 4 -4 13 7 20 24 7 17 17 28 21 25 5 -3 8 5 7 19 -2 18 1 22 13 18 9 -4 13
-2 8 5 -3 6 -2 13 4 17 6 4 8 10 5 15 -3 4 2 10 10 14 8 3 15 12 15 21 0 8 6
15 13 15 8 0 7 4 -3 10 -10 6 -11 10 -2 10 6 0 12 7 12 16 0 8 5 12 10 9 6 -4
9 -3 8 2 -5 19 17 60 49 91 19 17 32 32 28 32 -4 0 0 7 7 15 31 34 38 45 38
57 0 7 9 19 20 26 12 7 18 18 14 24 -4 6 -3 8 3 5 9 -6 20 1 69 42 7 5 15 7
18 4 3 -4 6 -1 6 5 0 6 9 14 20 17 11 4 18 10 15 14 -4 8 44 36 58 33 4 -1 6
1 5 5 -4 11 39 53 46 46 3 -4 6 1 6 11 0 9 4 15 9 11 5 -3 13 4 16 15 5 16 10
19 20 10 11 -9 12 -7 8 8 -5 21 21 37 40 25 7 -4 6 1 -2 11 -13 15 -12 18 7
23 12 3 20 9 17 13 -3 4 6 19 20 31 13 13 25 30 25 37 0 6 5 12 11 12 5 0 7 5
4 10 -3 6 -2 10 4 10 6 0 18 16 27 35 9 19 21 35 26 35 6 0 8 7 4 15 -3 8 -1
15 5 15 6 0 8 7 5 16 -3 8 -2 12 4 9 6 -3 10 1 10 9 0 9 5 16 11 16 5 0 7 5 4
10 -3 6 -1 10 5 10 6 0 8 5 5 10 -3 6 -1 10 5 10 6 0 10 6 9 13 -3 26 1 38 13
31 8 -5 9 0 6 14 -4 12 -2 22 3 22 5 0 9 6 9 14 0 8 5 18 12 22 7 5 8 3 3 -6
-5 -9 -4 -11 4 -6 9 6 9 11 1 21 -12 15 3 30 20 20 6 -3 10 -2 10 4 0 5 -5 11
-12 13 -8 3 -8 10 4 26 8 12 18 19 22 15 4 -4 4 1 0 11 -6 15 -4 17 6 11 8 -5
11 -4 6 3 -9 15 4 63 15 56 5 -3 16 2 25 10 9 9 20 14 25 11 5 -4 9 -1 9 5 0
6 5 8 10 5 6 -3 10 -2 10 3 0 8 46 35 63 36 5 1 15 9 22 19 7 10 15 18 17 17
8 -3 58 20 58 28 0 5 11 15 25 22 13 7 22 18 18 23 -3 6 -1 7 4 4 6 -4 29 11
52 33 23 22 46 40 52 40 5 0 8 4 4 9 -3 5 4 12 15 16 11 3 19 12 17 18 -1 7 4
11 11 9 6 -1 12 2 12 8 0 5 14 23 30 40 17 17 30 35 30 41 0 6 4 8 9 4 5 -3
12 4 16 15 3 11 9 20 13 20 4 0 18 18 32 40 14 22 28 40 33 40 4 0 5 5 2 10
-3 6 -1 10 4 10 6 0 11 6 11 14 0 8 12 24 26 35 15 12 21 21 14 21 -9 0 -8 5
3 18 10 10 17 23 17 29 0 6 5 13 11 15 5 2 11 11 13 21 1 10 11 28 21 40 11
12 20 29 21 37 1 8 9 31 17 51 9 20 14 39 12 43 -3 3 -2 4 2 1 9 -7 55 114 47
126 -3 5 0 9 6 9 7 0 9 7 6 16 -4 10 -2 13 6 8 7 -5 9 0 6 14 -4 12 -2 22 4
22 5 0 6 5 3 10 -3 6 -2 10 4 10 6 0 8 6 5 14 -3 8 0 17 6 21 8 5 8 11 -1 21
-10 12 -10 15 1 12 12 -3 20 24 21 75 0 9 4 17 10 17 5 0 8 3 8 8 -1 4 -1 22
0 40 1 24 5 31 14 26 9 -6 9 -5 0 8 -7 8 -10 18 -7 21 6 6 16 61 17 100 1 9 5
17 10 17 5 0 4 7 -3 15 -8 9 -9 15 -2 15 6 0 9 9 7 20 -2 11 -1 20 3 20 4 0 6
19 4 41 -3 31 -1 40 8 34 9 -6 9 -3 2 12 -6 11 -7 25 -2 33 6 9 5 17 -3 22 -9
6 -9 8 0 8 7 0 9 11 6 31 -3 23 -1 29 8 24 7 -5 10 -4 6 2 -3 5 -7 26 -9 46
-1 21 -5 37 -9 37 -5 0 -6 9 -4 20 3 14 -2 20 -13 20 -14 0 -14 2 -3 9 11 7 9
10 -8 16 -12 3 -19 10 -17 14 8 13 -24 52 -36 45 -7 -5 -8 -2 -3 6 5 8 -3 21
-20 36 -16 13 -25 24 -22 24 3 0 -5 11 -19 25 -14 14 -29 25 -34 25 -6 0 -10
4 -10 8 0 5 -10 19 -22 32 -13 14 -22 28 -20 33 1 5 -2 6 -8 2 -5 -3 -10 -1
-10 5 0 6 -4 8 -10 5 -13 -8 -10 46 4 64 9 12 8 13 -4 6 -12 -7 -13 -6 -3 7 7
8 10 18 6 21 -3 4 1 9 10 13 9 3 13 12 11 19 -3 8 3 19 15 26 16 11 18 16 8
28 -8 10 -8 13 -1 8 7 -4 15 0 18 9 3 8 10 12 16 9 6 -3 7 1 4 9 -3 9 -1 16 6
16 6 0 9 4 6 8 -3 5 6 15 19 22 13 7 22 17 19 21 -2 4 4 12 13 18 10 6 15 11
11 11 -11 0 42 50 53 50 6 0 7 5 4 10 -3 6 -1 10 5 10 6 0 8 5 5 10 -3 6 1 10
10 10 10 0 13 5 9 12 -5 8 -2 9 10 5 9 -4 14 -3 11 2 -3 5 4 12 14 16 12 4 18
12 14 21 -3 7 0 14 5 14 15 0 20 31 10 58 -5 15 -4 22 4 22 7 0 3 7 -8 16 -10
8 -14 13 -7 10 7 -4 11 1 10 14 -1 11 -5 20 -10 20 -5 0 -7 9 -4 20 3 11 1 20
-5 20 -6 0 -7 7 -4 16 3 8 2 12 -4 9 -6 -3 -10 5 -10 19 0 14 -5 28 -10 31 -8
5 -7 12 2 23 7 10 8 14 4 10 -12 -10 -35 22 -36 50 0 12 -5 22 -11 22 -5 0 -7
5 -4 10 3 6 1 10 -5 10 -6 0 -9 4 -5 9 3 5 -3 17 -12 27 -10 10 -16 18 -14 18
9 2 -11 46 -20 46 -6 0 -8 4 -5 9 3 4 -3 19 -14 31 -11 12 -17 27 -13 33 3 5
2 7 -4 4 -8 -5 -38 41 -33 51 1 2 -8 12 -19 21 -12 10 -21 24 -21 30 0 7 -4 9
-10 6 -5 -3 -10 -1 -10 4 0 16 -33 51 -47 51 -7 0 -12 3 -12 8 1 4 1 14 0 22
-1 13 -2 13 -11 0 -8 -13 -10 -13 -10 2 0 9 -5 20 -12 24 -7 5 -8 2 -3 -7 5
-8 -3 -4 -17 9 -13 12 -32 22 -41 22 -9 0 -17 6 -17 13 0 8 -4 7 -10 -3 -5 -8
-10 -10 -10 -4 0 6 -11 12 -25 12 -14 0 -25 -5 -25 -10 0 -5 -5 -6 -10 -3 -6
4 -21 0 -34 -8 -35 -24 -95 -85 -89 -91 4 -3 1 -6 -6 -6 -7 0 -9 -4 -6 -10 3
-5 3 -10 -2 -10 -11 0 -34 -51 -27 -61 3 -5 0 -9 -6 -9 -6 0 -9 -4 -5 -9 3 -5
1 -12 -4 -16 -6 -3 -8 -12 -5 -19 3 -7 -2 -16 -11 -20 -10 -4 -13 -11 -8 -18
10 -17 11 -58 1 -52 -11 7 -10 -4 3 -28 8 -15 8 -19 0 -14 -8 5 -10 -4 -9 -26
2 -25 -1 -32 -12 -30 -10 1 -9 -2 4 -13 11 -8 15 -15 9 -15 -7 0 -8 -12 -3
-35 4 -19 5 -35 1 -35 -8 0 -5 -125 3 -139 4 -6 3 -11 -1 -11 -5 0 -7 -15 -5
-34 2 -18 -1 -44 -8 -56 -10 -18 -10 -21 2 -14 10 6 11 5 1 -8 -7 -8 -10 -18
-6 -21 3 -4 1 -7 -6 -7 -8 0 -11 -7 -7 -15 3 -8 2 -15 -3 -15 -5 0 -12 -11
-15 -25 -4 -14 -11 -25 -16 -25 -5 0 -7 -6 -4 -14 3 -7 -1 -20 -8 -27 -7 -8
-22 -34 -33 -58 -11 -24 -24 -49 -30 -55 -5 -6 -21 -34 -35 -61 -14 -28 -31
-54 -38 -58 -7 -5 -10 -12 -8 -16 3 -4 -4 -18 -15 -30 -11 -12 -21 -30 -22
-41 -1 -10 -4 -17 -8 -14 -4 2 -10 -5 -14 -16 -3 -11 -11 -20 -16 -20 -6 0 -8
-4 -4 -9 3 -5 -4 -12 -15 -16 -11 -3 -19 -12 -17 -18 1 -7 -4 -11 -10 -10 -7
2 -13 -2 -13 -7 0 -6 -18 -28 -39 -49 -22 -22 -37 -41 -35 -44 3 -3 -3 -8 -14
-11 -10 -4 -24 -18 -30 -31 -7 -14 -19 -28 -27 -31 -8 -4 -12 -10 -9 -15 3 -5
-2 -12 -10 -15 -9 -3 -16 -12 -16 -20 0 -7 -6 -17 -13 -21 -7 -4 -30 -33 -51
-63 -22 -30 -43 -56 -48 -58 -4 -2 -8 -10 -8 -18 0 -8 -4 -14 -10 -14 -5 0
-10 -6 -10 -13 0 -7 -9 -23 -20 -35 -11 -12 -20 -25 -20 -30 0 -5 -7 -15 -15
-22 -9 -7 -13 -15 -11 -17 3 -3 -4 -14 -15 -26 -10 -11 -19 -27 -19 -34 0 -7
-5 -13 -11 -13 -5 0 -7 -5 -4 -10 3 -6 -1 -13 -9 -16 -9 -3 -14 -10 -11 -14 3
-5 -3 -13 -12 -19 -11 -6 -13 -11 -5 -11 10 0 10 -3 0 -14 -7 -8 -16 -12 -21
-9 -4 2 -6 1 -5 -4 3 -13 -14 -56 -28 -71 -8 -7 -12 -17 -9 -22 3 -4 -2 -11
-10 -14 -8 -3 -15 -9 -14 -13 3 -20 -2 -34 -10 -29 -5 4 -8 -2 -7 -11 2 -10
-5 -25 -15 -34 -10 -9 -16 -19 -12 -22 3 -4 -1 -15 -9 -24 -9 -10 -18 -27 -20
-38 -2 -11 -9 -19 -15 -18 -6 1 -9 -6 -6 -16 2 -10 -4 -24 -14 -31 -10 -8 -15
-11 -11 -6 3 4 -7 22 -23 38 -16 17 -29 37 -29 45 0 8 -3 12 -7 10 -10 -6 -34
19 -26 27 4 3 -1 6 -11 6 -9 0 -15 4 -12 9 7 11 -67 91 -84 91 -6 0 -8 5 -5
10 3 6 -1 10 -10 10 -9 0 -13 5 -10 10 3 6 -3 10 -14 10 -12 0 -21 5 -21 12 0
6 -3 8 -7 5 -3 -4 -12 -2 -20 4 -7 6 -13 7 -13 2 0 -7 -17 -8 -63 -4 -5 1 -6
5 -2 10 3 5 -4 13 -16 16 -17 6 -19 9 -8 16 10 6 11 9 1 9 -7 0 -17 11 -24 25
-6 13 -14 22 -18 20 -5 -3 -11 6 -14 20 -4 14 -13 25 -21 25 -8 0 -15 9 -15
21 0 11 -4 17 -10 14 -5 -3 -15 5 -22 19 -6 14 -18 26 -26 26 -9 0 -13 3 -9 6
7 8 -38 54 -53 54 -6 0 -9 3 -7 8 2 4 -6 17 -19 30 -13 12 -24 19 -24 15 0 -4
-8 4 -18 20 -10 15 -21 24 -25 21 -4 -4 -9 1 -13 10 -3 9 -12 16 -20 16 -8 0
-14 7 -14 16 0 9 -5 14 -12 12 -6 -2 -24 8 -38 24 -15 15 -31 24 -35 20 -5 -4
-5 2 -1 12 5 16 4 17 -8 7 -12 -10 -16 -8 -21 9 -3 11 -10 18 -15 15 -5 -3
-15 2 -23 10 -9 8 -20 15 -26 15 -6 0 -11 5 -11 10 0 6 -9 10 -21 10 -11 0
-17 5 -14 10 3 6 -1 10 -10 10 -9 0 -23 7 -32 15 -8 8 -19 13 -24 10 -5 -4 -9
-1 -9 4 0 6 -7 11 -15 11 -8 0 -15 5 -15 11 0 5 -5 7 -10 4 -6 -3 -13 0 -16 9
-3 8 -11 13 -19 10 -7 -3 -20 2 -29 11 -9 9 -16 13 -16 9 0 -3 -6 -1 -14 5 -8
7 -25 14 -37 16 -13 3 -25 9 -27 14 -2 6 -10 7 -19 4 -11 -4 -14 -2 -9 5 5 8
2 10 -8 6 -9 -3 -16 -1 -16 5 0 6 -7 8 -15 5 -8 -4 -15 -1 -15 4 0 6 -9 9 -20
7 -11 -2 -20 0 -20 4 0 4 -23 13 -50 20 -28 7 -48 17 -44 22 3 5 -7 4 -21 -1
-14 -5 -24 -6 -21 -1 3 5 -1 11 -9 15 -8 3 -15 0 -15 -7 0 -8 -3 -8 -9 2 -5 7
-14 10 -20 7 -6 -4 -11 -2 -11 5 0 6 -8 9 -20 6 -11 -3 -20 -2 -20 2 0 4 -13
7 -30 6 -16 -1 -27 2 -24 6 2 4 -4 8 -13 8 -50 2 -83 6 -83 11 0 3 -21 6 -46
7 -26 2 -53 8 -62 15 -12 10 -14 10 -8 1 8 -14 -6 -18 -18 -6 -4 4 -33 8 -65
8 -32 1 -63 5 -69 9 -7 4 -12 2 -12 -6 0 -8 -3 -9 -8 -3 -9 12 -32 12 -52 0
-13 -8 -13 -7 -1 8 7 9 17 14 22 11 5 -3 9 0 9 6 0 7 7 10 15 6 8 -3 15 -1 15
5 0 6 5 7 10 4 6 -3 10 0 10 7 0 9 3 9 10 -2 5 -8 10 -10 10 -3 0 6 8 10 18 9
9 -2 20 2 24 8 5 8 8 7 8 -2 0 -9 5 -10 19 -2 14 7 21 6 24 -3 4 -9 6 -9 6 0
1 9 8 10 25 3 15 -5 27 -5 35 3 8 8 11 8 11 -2 0 -8 7 -11 20 -8 11 3 20 2 20
-2 0 -15 59 2 63 18 4 18 -21 76 -30 67 -3 -3 -12 2 -20 10 -8 8 -18 12 -23 9
-4 -3 -13 2 -20 10 -15 18 -34 20 -24 3 6 -9 3 -9 -9 0 -9 8 -21 11 -27 7 -5
-3 -10 -2 -10 3 0 5 -13 8 -30 7 -16 -1 -30 1 -30 5 0 4 -11 5 -25 2 -14 -2
-33 2 -42 9 -12 10 -14 10 -9 2 4 -7 3 -13 -3 -13 -5 0 -13 5 -16 10 -5 8 -11
8 -19 1 -7 -6 -16 -8 -20 -4 -11 11 -37 12 -30 1 8 -12 -29 -6 -38 7 -5 6 -8
5 -8 -4 0 -11 -3 -11 -17 0 -11 9 -14 10 -9 2 5 -9 0 -12 -17 -11 -24 2 -24 2
9 35 19 18 40 33 46 33 6 0 8 3 5 7 -4 3 -2 11 3 18 6 8 6 12 -3 14 -32 6
-266 7 -262 1 2 -3 -16 -6 -41 -5 -24 0 -44 -3 -44 -7 0 -4 -3 -7 -7 -7 -5 1
-10 0 -13 -1 -3 -1 -18 -4 -35 -6 -16 -3 -31 -9 -33 -15 -2 -5 -12 -9 -22 -9
-10 0 -22 -5 -25 -11 -4 -6 -13 -8 -20 -5 -7 2 -16 -2 -19 -10 -3 -9 -10 -13
-15 -10 -5 3 -12 -1 -15 -10 -3 -9 -13 -14 -21 -11 -9 4 -12 1 -9 -7 3 -7 -2
-13 -11 -13 -16 0 -17 30 -1 56 6 10 5 12 -2 7 -7 -4 -12 -1 -12 8 0 8 6 16
13 19 6 2 -1 6 -16 9 -21 4 -27 2 -23 -8 3 -8 0 -11 -9 -8 -7 3 -35 -14 -60
-38 -26 -24 -58 -53 -71 -64 -12 -12 -25 -20 -27 -17 -3 2 -8 -5 -12 -16 -4
-13 -11 -18 -23 -14 -9 3 -14 3 -10 -1 13 -15 -36 -50 -69 -50 -18 0 -33 -4
-33 -9 0 -4 -5 -5 -11 -1 -6 3 -15 0 -20 -7 -7 -11 -9 -11 -9 -1 0 9 -5 10
-17 4 -10 -5 -26 -8 -35 -7 -10 2 -21 -1 -24 -6 -3 -6 -12 -5 -22 3 -12 10
-14 10 -8 1 7 -12 -10 -18 -41 -14 -7 1 -13 -2 -13 -7 0 -5 -6 -9 -12 -10 -35
-3 -54 -8 -59 -14 -3 -5 -17 -9 -32 -10 -15 -1 -27 -6 -27 -11 0 -4 -4 -5 -10
-2 -5 3 -10 1 -10 -4 0 -6 -9 -11 -20 -11 -11 0 -20 -6 -20 -12 0 -9 -4 -8
-10 2 -7 11 -10 11 -10 2 0 -7 -4 -10 -10 -7 -5 3 -10 1 -10 -6 0 -7 -3 -9 -7
-6 -3 4 -12 2 -20 -4 -7 -6 -13 -8 -13 -5 0 4 -7 0 -16 -8 -8 -9 -20 -14 -25
-11 -5 4 -9 2 -9 -2 0 -7 -65 -38 -65 -31 0 2 -11 -7 -25 -19 -22 -22 -33 -26
-45 -20 -2 1 -12 -8 -20 -21 -9 -12 -21 -20 -26 -16 -5 3 -8 0 -7 -8 2 -7 -3
-12 -10 -10 -7 1 -15 -5 -18 -13 -4 -8 -12 -15 -20 -15 -8 0 -14 -4 -14 -10 0
-5 -4 -10 -9 -10 -11 0 -37 -22 -154 -135 -48 -47 -84 -85 -80 -85 4 0 0 -5
-9 -11 -10 -5 -18 -17 -18 -26 0 -9 -6 -13 -14 -10 -10 4 -18 -2 -22 -16 -4
-12 -14 -29 -24 -37 -9 -8 -19 -23 -23 -33 -4 -11 -12 -15 -19 -11 -7 4 -10 4
-6 -1 10 -10 -11 -47 -22 -40 -5 3 -7 -4 -5 -15 2 -13 -1 -20 -11 -20 -8 0
-12 -4 -9 -10 3 -5 1 -10 -4 -10 -6 0 -11 -7 -11 -15 0 -8 -4 -15 -9 -15 -5 0
-13 -10 -17 -22 -4 -13 -11 -26 -16 -29 -5 -3 -11 -15 -12 -25 -2 -10 -9 -18
-16 -16 -6 1 -9 -2 -6 -7 4 -5 2 -12 -3 -16 -6 -3 -7 -13 -4 -22 4 -10 2 -14
-4 -10 -10 6 -56 -89 -58 -120 0 -7 -5 -13 -10 -13 -6 0 -11 28 -11 62 -3 102
-14 250 -20 259 -3 5 1 9 8 9 10 0 10 2 -1 9 -7 5 -11 13 -7 19 3 6 0 13 -6
15 -9 4 -9 6 -2 6 8 1 9 12 5 34 -4 17 -8 35 -9 40 -1 4 -2 8 -3 10 -2 7 -12
116 -13 137 -1 14 -4 27 -8 30 -4 3 -9 28 -12 55 -3 28 -5 50 -6 50 -3 0 -12
51 -13 73 -1 12 -5 22 -9 22 -4 0 -8 7 -8 15 0 8 -9 23 -20 32 -11 10 -20 25
-20 33 0 9 -5 21 -10 26 -10 10 -21 44 -22 72 -1 6 -5 12 -9 12 -4 0 -6 8 -4
18 1 9 -1 24 -5 32 -5 9 -11 31 -13 50 -3 19 -6 35 -7 35 -2 0 -4 14 -5 30 -2
17 -4 30 -5 30 -1 0 -3 16 -5 35 -1 19 -6 43 -10 52 -4 9 -4 22 0 28 3 5 1 10
-6 10 -10 0 -10 3 -1 12 7 7 8 17 2 28 -5 9 -9 25 -9 36 0 10 -2 39 -5 64 -3
25 -6 65 -7 90 -2 25 -6 50 -11 57 -5 6 -5 14 2 18 6 3 8 10 5 15 -9 14 -13
70 -5 75 3 2 6 22 6 45 -1 28 3 40 13 40 10 0 11 3 2 14 -7 9 -8 17 -2 20 5 3
8 19 7 36 -1 16 1 31 5 32 4 2 10 32 14 68 3 36 10 69 15 74 5 5 5 19 0 31 -5
13 -6 26 -2 29 3 4 7 15 9 26 2 11 4 29 6 40 2 11 6 23 10 26 4 4 2 14 -5 21
-8 10 -8 17 -1 21 6 4 9 21 8 37 -1 17 2 43 7 59 5 21 4 32 -5 38 -8 5 -9 8 0
8 6 0 10 8 8 18 -1 9 2 23 8 30 6 8 6 12 -2 12 -7 0 -9 5 -5 12 10 16 12 228
2 234 -5 3 -5 11 -1 17 10 15 11 97 1 97 -4 0 -3 13 2 30 5 16 5 32 1 34 -4 3
-8 24 -10 47 -1 24 -7 49 -12 55 -7 8 -6 14 1 19 6 4 7 12 1 23 -5 9 -11 31
-14 47 -3 17 -9 41 -12 55 -4 14 -7 32 -8 40 -1 8 -5 18 -9 21 -5 3 -9 17 -10
32 -1 15 -6 27 -10 27 -4 0 -8 7 -8 15 0 8 -4 15 -10 15 -5 0 -7 6 -4 13 3 8
-2 20 -11 27 -8 7 -15 19 -15 26 0 8 -4 14 -10 14 -5 0 -10 6 -10 13 -1 13
-80 107 -80 94 0 -4 -6 -2 -14 5 -8 7 -12 16 -9 21 2 4 -5 7 -16 7 -12 0 -21
5 -21 11 0 5 -4 7 -10 4 -5 -3 -10 -1 -10 6 0 7 -3 9 -7 6 -3 -4 -13 -1 -21 6
-13 10 -14 9 -7 -3 8 -13 7 -13 -9 0 -18 14 -44 22 -83 24 -11 1 -19 5 -15 10
3 5 -2 7 -11 3 -10 -3 -17 -3 -17 2 0 5 -10 7 -22 7 -13 -1 -29 2 -35 7 -8 6
-13 6 -13 -1 0 -7 -10 -8 -30 -2 -16 5 -30 6 -30 2z m3990 -6886 c0 -3 -4 -8
-10 -11 -5 -3 -10 -1 -10 4 0 6 5 11 10 11 6 0 10 -2 10 -4z"/>
<path d="M7318 4873 c7 -3 16 -2 19 1 4 3 -2 6 -13 5 -11 0 -14 -3 -6 -6z"/>
<path d="M8690 421 c0 -5 7 -12 16 -15 14 -5 15 -4 4 9 -14 17 -20 19 -20 6z"/>
</g>
</svg>
